<svg width="283" height="250" viewBox="0 0 283 250" fill="none" xmlns="http://www.w3.org/2000/svg">
<path d="M85.7322 233.457C85.647 232.597 85.2813 231.93 84.6349 231.454C83.9886 230.978 83.1115 230.74 82.0036 230.74C81.2507 230.74 80.6151 230.847 80.0966 231.06C79.5781 231.266 79.1804 231.553 78.9034 231.923C78.6335 232.292 78.4986 232.711 78.4986 233.18C78.4844 233.57 78.5661 233.911 78.7436 234.202C78.9283 234.494 79.1804 234.746 79.5 234.959C79.8196 235.165 80.1889 235.346 80.608 235.502C81.027 235.651 81.4744 235.779 81.9503 235.886L83.9105 236.354C84.8622 236.567 85.7358 236.852 86.5312 237.207C87.3267 237.562 88.0156 237.999 88.598 238.517C89.1804 239.036 89.6314 239.646 89.951 240.349C90.2777 241.053 90.4446 241.859 90.4517 242.768C90.4446 244.103 90.1037 245.261 89.429 246.241C88.7614 247.214 87.7955 247.97 86.5312 248.51C85.2741 249.043 83.7578 249.309 81.9822 249.309C80.2209 249.309 78.6868 249.039 77.38 248.499C76.0803 247.96 75.0646 247.161 74.3331 246.102C73.6087 245.037 73.2287 243.719 73.1932 242.15H77.657C77.7067 242.881 77.9162 243.492 78.2855 243.982C78.6619 244.465 79.1626 244.831 79.7876 245.08C80.4197 245.321 81.1335 245.442 81.929 245.442C82.7102 245.442 83.3885 245.328 83.9638 245.101C84.5462 244.874 84.9972 244.558 85.3168 244.153C85.6364 243.748 85.7962 243.283 85.7962 242.757C85.7962 242.267 85.6506 241.855 85.3594 241.521C85.0753 241.187 84.6563 240.903 84.1023 240.669C83.5554 240.435 82.8842 240.222 82.0888 240.03L79.7131 239.433C77.8736 238.986 76.4212 238.286 75.3558 237.335C74.2905 236.383 73.7614 235.101 73.7685 233.489C73.7614 232.168 74.1129 231.013 74.8232 230.026C75.5405 229.039 76.5241 228.268 77.7741 227.714C79.0241 227.161 80.4446 226.884 82.0355 226.884C83.6548 226.884 85.0682 227.161 86.2756 227.714C87.4901 228.268 88.4347 229.039 89.1094 230.026C89.7841 231.013 90.1321 232.157 90.1534 233.457H85.7322ZM98.0076 239.54V249H93.4693V227.182H97.8798V235.523H98.0716C98.4409 234.558 99.0375 233.801 99.8613 233.254C100.685 232.7 101.719 232.423 102.961 232.423C104.098 232.423 105.089 232.672 105.934 233.169C106.786 233.659 107.447 234.366 107.915 235.289C108.391 236.205 108.626 237.303 108.618 238.581V249H104.08V239.391C104.087 238.382 103.831 237.597 103.313 237.036C102.802 236.475 102.084 236.195 101.161 236.195C100.543 236.195 99.9963 236.326 99.5204 236.589C99.0517 236.852 98.6824 237.235 98.4125 237.739C98.1497 238.237 98.0147 238.837 98.0076 239.54ZM119.583 249.32C117.929 249.32 116.498 248.968 115.29 248.265C114.09 247.555 113.163 246.567 112.51 245.303C111.856 244.032 111.529 242.558 111.529 240.882C111.529 239.192 111.856 237.714 112.51 236.45C113.163 235.179 114.09 234.192 115.29 233.489C116.498 232.778 117.929 232.423 119.583 232.423C121.238 232.423 122.666 232.778 123.866 233.489C125.074 234.192 126.004 235.179 126.657 236.45C127.311 237.714 127.637 239.192 127.637 240.882C127.637 242.558 127.311 244.032 126.657 245.303C126.004 246.567 125.074 247.555 123.866 248.265C122.666 248.968 121.238 249.32 119.583 249.32ZM119.605 245.804C120.358 245.804 120.986 245.591 121.49 245.165C121.995 244.732 122.375 244.142 122.63 243.396C122.893 242.651 123.025 241.802 123.025 240.85C123.025 239.898 122.893 239.05 122.63 238.304C122.375 237.558 121.995 236.969 121.49 236.536C120.986 236.102 120.358 235.886 119.605 235.886C118.845 235.886 118.206 236.102 117.687 236.536C117.176 236.969 116.789 237.558 116.526 238.304C116.27 239.05 116.142 239.898 116.142 240.85C116.142 241.802 116.27 242.651 116.526 243.396C116.789 244.142 117.176 244.732 117.687 245.165C118.206 245.591 118.845 245.804 119.605 245.804ZM137.982 249.32C136.327 249.32 134.896 248.968 133.689 248.265C132.488 247.555 131.561 246.567 130.908 245.303C130.255 244.032 129.928 242.558 129.928 240.882C129.928 239.192 130.255 237.714 130.908 236.45C131.561 235.179 132.488 234.192 133.689 233.489C134.896 232.778 136.327 232.423 137.982 232.423C139.637 232.423 141.064 232.778 142.265 233.489C143.472 234.192 144.402 235.179 145.056 236.45C145.709 237.714 146.036 239.192 146.036 240.882C146.036 242.558 145.709 244.032 145.056 245.303C144.402 246.567 143.472 247.555 142.265 248.265C141.064 248.968 139.637 249.32 137.982 249.32ZM138.003 245.804C138.756 245.804 139.385 245.591 139.889 245.165C140.393 244.732 140.773 244.142 141.029 243.396C141.292 242.651 141.423 241.802 141.423 240.85C141.423 239.898 141.292 239.05 141.029 238.304C140.773 237.558 140.393 236.969 139.889 236.536C139.385 236.102 138.756 235.886 138.003 235.886C137.243 235.886 136.604 236.102 136.086 236.536C135.574 236.969 135.187 237.558 134.924 238.304C134.669 239.05 134.541 239.898 134.541 240.85C134.541 241.802 134.669 242.651 134.924 243.396C135.187 244.142 135.574 244.732 136.086 245.165C136.604 245.591 137.243 245.804 138.003 245.804ZM157.691 232.636V236.045H147.836V232.636H157.691ZM150.074 228.716H154.612V243.972C154.612 244.391 154.676 244.717 154.804 244.952C154.931 245.179 155.109 245.339 155.336 245.431C155.571 245.523 155.841 245.57 156.146 245.57C156.359 245.57 156.572 245.552 156.785 245.516C156.998 245.474 157.162 245.442 157.275 245.42L157.989 248.798C157.762 248.869 157.442 248.95 157.03 249.043C156.618 249.142 156.118 249.202 155.528 249.224C154.434 249.266 153.475 249.121 152.652 248.787C151.835 248.453 151.199 247.935 150.745 247.232C150.29 246.528 150.066 245.641 150.074 244.568V228.716ZM167.929 249.32C166.245 249.32 164.797 248.979 163.582 248.297C162.375 247.608 161.444 246.635 160.791 245.378C160.137 244.114 159.811 242.619 159.811 240.893C159.811 239.21 160.137 237.732 160.791 236.461C161.444 235.19 162.364 234.199 163.55 233.489C164.743 232.778 166.142 232.423 167.748 232.423C168.827 232.423 169.832 232.597 170.762 232.945C171.7 233.286 172.517 233.801 173.213 234.49C173.916 235.179 174.463 236.045 174.853 237.089C175.244 238.126 175.439 239.341 175.439 240.733V241.979H161.622V239.167H171.167C171.167 238.513 171.025 237.935 170.741 237.43C170.457 236.926 170.063 236.532 169.559 236.248C169.061 235.957 168.483 235.811 167.822 235.811C167.133 235.811 166.522 235.971 165.99 236.29C165.464 236.603 165.052 237.026 164.754 237.558C164.456 238.084 164.303 238.67 164.296 239.316V241.99C164.296 242.8 164.445 243.499 164.743 244.089C165.049 244.678 165.478 245.133 166.032 245.452C166.586 245.772 167.243 245.932 168.003 245.932C168.507 245.932 168.969 245.861 169.388 245.719C169.807 245.577 170.166 245.364 170.464 245.08C170.762 244.795 170.99 244.447 171.146 244.036L175.343 244.312C175.13 245.321 174.694 246.202 174.033 246.955C173.38 247.7 172.534 248.283 171.498 248.702C170.468 249.114 169.278 249.32 167.929 249.32ZM178.401 249V232.636H182.801V235.491H182.971C183.27 234.476 183.77 233.709 184.473 233.19C185.176 232.665 185.986 232.402 186.902 232.402C187.13 232.402 187.375 232.416 187.637 232.445C187.9 232.473 188.131 232.512 188.33 232.562V236.589C188.117 236.525 187.822 236.468 187.446 236.418C187.069 236.369 186.725 236.344 186.412 236.344C185.745 236.344 185.148 236.489 184.623 236.781C184.104 237.065 183.692 237.462 183.387 237.974C183.088 238.485 182.939 239.075 182.939 239.742V249H178.401Z" fill="white"/>
<path d="M195.087 227.182L199.487 234.618H199.657L204.078 227.182H209.288L202.629 238.091L209.437 249H204.132L199.657 241.553H199.487L195.012 249H189.728L196.557 238.091L189.856 227.182H195.087Z" fill="url(#paint0_radial_2887_131)"/>
<mask id="mask0_2887_131" style="mask-type:luminance" maskUnits="userSpaceOnUse" x="56" y="0" width="170" height="197">
<path d="M56.4609 0H225.984V196.727H56.4609V0Z" fill="white"/>
</mask>
<g mask="url(#mask0_2887_131)">
<path fill-rule="evenodd" clip-rule="evenodd" d="M77.5506 45.9028C76.121 40.3157 77.2962 34.1235 81.7738 29.7024C86.3653 25.1709 96.5482 24.4598 98.912 19.0318C99.697 17.2077 100.556 17.1105 100.175 19.6457C98.9821 27.6398 82.3395 29.0973 81.8132 39.6002C81.7781 40.3201 81.8483 42.1928 82.0457 43.4471C85.4356 41.5391 88.2291 39.6973 89.1807 37.6524C90.1192 35.634 90.6148 35.634 90.527 38.0853C90.3472 43.3323 84.212 46.8612 83.4709 47.188C85.0014 51.3794 87.0538 55.3809 87.9353 55.3191C89.9876 55.1689 92.1365 54.3121 94.0091 51.6135C96.1316 48.5572 94.702 44.7323 97.3815 41.7334C99.2102 39.6885 98.6795 40.9428 98.3857 42.5152C97.4078 47.7754 101.153 54.0736 92.29 59.9478C90.5797 60.9238 90.1938 61.7056 92.0795 65.2743C93.4258 67.8315 95.9957 69.5938 99.2409 69.0019C100.728 68.6972 102.039 67.9198 102.122 66.0383C102.144 62.3504 100.627 60.1112 102.841 56.6264C104.56 53.9146 106.994 51.8034 106.144 48.5483C105.863 47.4707 105.666 46.4813 107.275 48.1155C110.59 51.4943 106.516 56.1848 106.122 59.9919C105.582 65.1418 111.253 68.9092 115.73 71.2191C124.225 75.596 130.57 78.0296 134.035 85.4982C134.355 85.4982 134.631 85.5467 134.829 85.6616C135.236 85.8692 135.136 86.0149 136.771 86.5802C137.74 86.9115 138.806 86.7083 140.126 86.6023C140.784 86.5493 141.398 86.5405 142.056 86.5847C143.507 86.6774 144.652 86.938 145.691 86.5802C147.327 86.0149 147.226 85.8692 147.634 85.6616C147.849 85.5379 148.151 85.4893 148.511 85.4982C151.962 77.9722 158.207 75.6137 166.732 71.2191C171.21 68.9092 176.88 65.1418 176.341 59.9919C175.946 56.1848 171.872 51.4943 175.188 48.1155C176.797 46.4813 176.6 47.4707 176.319 48.5483C175.464 51.8034 177.902 53.9146 179.621 56.6264C181.831 60.1112 180.314 62.3504 180.34 66.0383C180.424 67.9198 181.735 68.6972 183.222 69.0019C186.467 69.5938 189.037 67.8315 190.383 65.2743C192.269 61.7056 191.883 60.9238 190.172 59.9478C181.31 54.0736 185.055 47.7754 184.072 42.5152C183.783 40.9428 183.252 39.6885 185.081 41.7334C187.76 44.7323 186.331 48.5572 188.453 51.6135C190.326 54.3121 192.475 55.1689 194.527 55.3191C195.409 55.3809 197.461 51.3794 198.992 47.188C198.255 46.8612 192.115 43.3323 191.935 38.0853C191.848 35.634 192.343 35.634 193.282 37.6524C194.229 39.6973 197.027 41.5391 200.417 43.4471C200.614 42.1928 200.684 40.3201 200.649 39.6002C200.119 29.0973 183.48 27.6398 182.283 19.6457C181.906 17.1105 182.766 17.2077 183.55 19.0318C185.914 24.4598 196.097 25.1709 200.684 29.7024C205.166 34.1235 206.342 40.3157 204.912 45.9028C209.881 48.6234 214.972 51.6621 217.038 55.6592C220.59 40.1788 209.595 23.8989 194.606 16.6953C188.138 13.5904 179.262 11.0243 181.752 2.34117C182.314 0.384589 182.546 0.128422 182.744 2.40742C183.423 10.4016 189.673 10.2338 197.509 14.0365C200.36 15.4233 201.333 14.3059 201.325 12.3273C201.298 8.82042 198.11 7.47776 198.062 4.26242C198.04 2.64592 198.426 3.06992 198.93 4.24034C200.5 7.90176 206.688 10.2205 205.583 16.4259C205.407 17.4108 204.986 18.4399 205.877 19.257C209.249 22.331 213.095 25.8202 215.753 29.6141C216.472 30.6476 217.02 31.5928 217.972 30.3605C222.844 24.0535 213.143 16.6247 215.441 7.86642C216.345 5.00442 216.932 6.08651 217.029 8.27717C217.248 13.2945 221.612 17.5389 223.572 20.9618C225.773 24.8043 225.177 29.5213 224.212 33.5273C223.335 37.171 222.646 40.6558 223.046 43.1865C223.787 47.9212 223.059 53.4288 221.23 59.3736C217.722 70.773 216.301 75.8875 201.114 75.5165C190.857 75.0616 176.643 74.2445 167.916 78.0163C164.377 79.5445 157.984 81.9162 155.243 88.1791C156.256 88.6296 155.286 90.9837 156.563 91.5932C157.677 92.1187 160.768 87.8302 163.066 85.3745C165.329 82.9586 167.934 82.274 171.153 81.8367C174.284 81.4127 174.968 81.0771 177.981 79.2795C178.801 78.7892 180.525 77.2743 181.384 78.3873C181.739 78.8511 182.152 79.836 182.292 81.1477C182.52 83.2412 178.871 94.0488 176.836 95.7272C174.503 97.6528 169.447 99.9186 167.399 100.541C164.825 101.327 160.891 101.76 160.501 103.253C161.65 105.55 159.553 108.368 159.685 109.551C159.988 112.259 157.944 115.324 157.08 117.793C157.563 122.965 162.623 134.744 161.387 137.306C161.387 140.101 167.921 159.261 166.04 169.459C165.654 172.891 165.276 176.817 161.553 179.388C160.146 181.282 156.672 189.555 151.677 190.323C148.844 191.132 146.441 196.701 141.231 196.52C136.021 196.701 133.618 191.132 130.785 190.323C125.79 189.555 122.317 181.282 120.909 179.388C117.182 176.817 116.804 172.891 116.419 169.459C114.542 159.261 121.076 140.101 121.076 137.306C119.839 134.744 124.9 122.965 125.387 117.793C124.518 115.324 122.479 112.259 122.777 109.551C122.909 108.368 120.813 105.55 121.962 103.253C121.571 101.76 117.638 101.327 115.063 100.541C113.015 99.9186 107.959 97.6528 105.626 95.7272C103.591 94.0488 99.9469 83.2412 100.171 81.1477C100.311 79.836 100.723 78.8511 101.078 78.3873C101.938 77.2743 103.661 78.7892 104.486 79.2795C107.494 81.0771 108.178 81.4127 111.31 81.8367C114.528 82.274 117.138 82.9586 119.396 85.3745C121.694 87.8302 124.786 92.1187 125.9 91.5932C127.176 90.9837 126.207 88.6296 127.22 88.1791C124.475 81.9162 118.085 79.5445 114.546 78.0163C105.819 74.2445 91.6015 75.0616 81.3484 75.5165C66.1617 75.8875 64.7364 70.773 61.2325 59.3736C59.3994 53.4288 58.6758 47.9212 59.4213 43.1865C59.816 40.6558 59.1275 37.171 58.2504 33.5273C57.29 29.5213 56.6892 24.8043 58.8907 20.9618C60.8509 17.5389 65.2144 13.2945 65.4337 8.27717C65.5302 6.08651 66.1178 5.00442 67.0212 7.86642C69.3192 16.6247 59.6186 24.0535 64.4908 30.3605C65.4425 31.5928 65.9906 30.6476 66.7099 29.6141C69.3674 25.8202 73.2134 22.331 76.5858 19.257C77.4761 18.4399 77.055 17.4108 76.8796 16.4259C75.7745 10.2205 81.9623 7.90176 83.5323 4.24034C84.0322 3.06992 84.4225 2.64592 84.4006 4.26242C84.3524 7.47776 81.1642 8.82042 81.1379 12.3273C81.1291 14.3059 82.1027 15.4233 84.9532 14.0365C92.7899 10.2338 99.0435 10.4016 99.7189 2.40742C99.9118 0.128422 100.149 0.384589 100.71 2.34117C103.201 11.0243 94.3248 13.5904 87.8563 16.6953C72.867 23.8989 61.8727 40.1788 65.4205 55.6592C67.4905 51.6621 72.5775 48.6234 77.5506 45.9028ZM202.987 50.1472C209.946 54.9878 216.937 60.1686 212.029 67.4605C209.587 70.6228 201.877 70.7288 198.088 69.8853C194.387 69.4922 196.273 65.2698 198.452 60.2039C200.062 57.152 201.548 53.2874 202.987 50.1472ZM79.4758 50.1472C72.5205 54.9878 65.5258 60.1686 70.4331 67.4605C72.8757 70.6228 80.5853 70.7288 84.3743 69.8853C88.0756 69.4922 86.1899 65.2698 84.0059 60.2039C82.4009 57.152 80.9142 53.2874 79.4758 50.1472Z" fill="white"/>
</g>
<mask id="mask1_2887_131" style="mask-type:luminance" maskUnits="userSpaceOnUse" x="0" y="102" width="200" height="119">
<path d="M0 102.096H199.953V220.343H0V102.096Z" fill="white"/>
</mask>
<g mask="url(#mask1_2887_131)">
<path fill-rule="evenodd" clip-rule="evenodd" d="M0 199.294C3.38554 207.058 12.7616 219.389 16.2524 220.343C20.2036 219.094 57.8743 174.675 61.83 187.726C62.9483 188.786 70.6754 186.927 73.8592 184.136C71.684 181.026 73.6355 176.278 77.1483 172.131C77.5824 171.623 78.534 171.588 79.0954 171.875C80.9373 172.807 81.9064 176.561 84.3842 175.479C86.0989 174.724 90.1861 172.67 92.1858 171.336C94.5803 169.746 92.927 166.456 92.7866 163.576C92.7209 162.185 93.5234 161.244 94.6943 160.67C112.359 151.965 129.422 144.695 147.267 134.965C149.187 133.918 149.205 131.016 148.284 128.746L199.585 108.072C200.51 107.679 199.392 104.432 198.291 104.83L197.857 105.007L197.515 104.15C196.743 104.463 196.05 102.776 195.901 102.229C195.147 102.529 193.015 103.39 191.761 103.894C191.937 104.653 191.38 106.027 190.038 107.166L186.025 108.783L185.771 109.878L132.505 131.343C131.589 131.71 129.874 131.348 129.361 130.433C127.993 130.99 126.62 131.542 125.252 132.094C125.511 133.132 124.498 134.567 123.564 134.947L105.864 142.076C105.526 141.899 105.184 141.903 104.676 142.107L100.29 143.878L99.7902 142.619L99.2157 142.853L98.4131 140.83L101.365 139.642C104.798 139.064 110.644 138.229 114.078 137.646C116.003 136.868 117.924 136.096 119.853 135.318C119.788 133.883 116.678 126.052 115.74 124.97C113.815 125.743 111.89 126.52 109.969 127.293C107.083 129.259 102.277 132.717 99.3955 134.682L96.4441 135.87L95.7512 134.117L90.7343 136.14L91.4272 137.893L88.2258 139.183L88.4539 138.264L87.5505 135.985L79.8453 139.09L80.7487 141.369L81.5424 141.877L78.5823 143.069L77.8894 141.32L72.8681 143.339L73.5654 145.092L70.1535 146.466L67.6056 146.258L63.2509 148.012L63.4658 148.546L58.7777 150.436L58.6243 150.043L57.0543 150.671C57.3788 152.623 59.0321 156.708 59.7601 157.477C60.2819 157.269 60.8038 157.057 61.3257 156.849L61.1722 156.452L65.8558 154.566L66.0707 155.1L70.421 153.343L70.3509 153.17L72.127 151.426L75.5344 150.052L76.3413 152.071L74.9731 152.618L75.4818 153.886L74.7494 154.182C74.4293 154.314 74.0127 154.606 73.8285 154.937C72.9909 155.295 70.4166 156.554 71.2937 157.004C71.5875 157.154 71.9296 157.773 71.2586 158.117C69.4518 159.062 70.8815 159.513 70.1974 160.935C65.3559 165.038 64.2858 172.418 57.7954 173.469C54.002 174.083 49.5201 172.692 45.4022 174.556C35.0614 178.438 8.30598 193.146 0 199.294ZM85.0683 147.274C84.4763 147.513 83.893 147.446 83.6299 146.788L80.5557 148.029L81.3583 150.048L94.1988 144.871L93.3962 142.853L90.0808 144.191C90.344 144.849 89.9668 145.3 89.3704 145.543C87.9364 146.117 86.5023 146.696 85.0683 147.274ZM82.4985 167.184C82.3274 169.004 83.8843 172.851 85.9279 173.2C84.3228 173.438 82.2046 171.601 81.082 168.275C78.7314 170.201 82.2178 175.32 84.4807 174.331C85.9761 173.673 89.5283 171.893 91.2693 170.731C94.1067 168.841 91.5193 162.229 88.16 163.943C86.1515 164.967 84.3447 165.851 82.4985 167.184Z" fill="white"/>
</g>
<mask id="mask2_2887_131" style="mask-type:luminance" maskUnits="userSpaceOnUse" x="82" y="102" width="201" height="119">
<path d="M82.2949 102.096H282.068V220.343H82.2949V102.096Z" fill="white"/>
</mask>
<g mask="url(#mask2_2887_131)">
<path fill-rule="evenodd" clip-rule="evenodd" d="M282.463 199.294C279.078 207.058 269.702 219.389 266.211 220.343C262.255 219.094 224.585 174.675 220.638 187.726C219.515 188.786 211.784 186.927 208.604 184.136C210.779 181.026 208.828 176.278 205.315 172.131C204.881 171.623 203.929 171.588 203.368 171.875C201.526 172.807 200.553 176.561 198.079 175.479C196.36 174.724 192.273 172.67 190.273 171.336C187.883 169.746 189.536 166.456 189.677 163.576C189.743 162.185 188.94 161.244 187.769 160.67C170.105 151.965 153.037 144.695 135.197 134.965C133.276 133.918 133.258 131.016 134.179 128.746L82.8788 108.072C81.9534 107.679 83.0717 104.432 84.1681 104.83L84.611 105.007L84.9487 104.15C85.7161 104.463 86.4134 102.776 86.5669 102.229C87.3168 102.529 89.4437 103.39 90.7024 103.894C90.5269 104.653 91.0883 106.027 92.4258 107.166L96.4341 108.783L96.6884 109.878L149.958 131.343C150.87 131.71 152.589 131.348 153.102 130.433C154.471 130.99 155.843 131.542 157.212 132.094C156.953 133.132 157.966 134.567 158.896 134.947L176.6 142.076C176.937 141.899 177.279 141.903 177.788 142.107L182.173 143.878L182.673 142.619L183.248 142.853L184.046 140.83L181.099 139.642C177.665 139.064 171.819 138.229 168.386 137.646C166.46 136.868 164.535 136.096 162.61 135.318C162.676 133.883 165.785 126.052 166.724 124.97C168.649 125.743 170.574 126.52 172.499 127.293C175.38 129.259 180.182 132.717 183.068 134.682L186.019 135.87L186.712 134.117L191.729 136.14L191.036 137.893L194.233 139.183L194.01 138.264L194.913 135.985L202.618 139.09L201.715 141.369L200.921 141.877L203.877 143.069L204.574 141.32L209.595 143.339L208.898 145.092L212.31 146.466L214.858 146.258L219.213 148.012L218.998 148.546L223.686 150.436L223.839 150.043L225.409 150.671C225.085 152.623 223.431 156.708 222.703 157.477C222.182 157.269 221.66 157.057 221.138 156.849L221.291 156.452L216.608 154.566L216.393 155.1L212.042 153.343L212.108 153.17L210.337 151.426L206.925 150.052L206.122 152.071L207.486 152.618L206.982 153.886L207.71 154.182C208.034 154.314 208.451 154.606 208.635 154.937C209.468 155.295 212.047 156.554 211.17 157.004C210.876 157.154 210.534 157.773 211.205 158.117C213.012 159.062 211.578 159.513 212.262 160.935C217.108 165.038 218.178 172.418 224.664 173.469C228.461 174.083 232.939 172.692 237.061 174.556C247.398 178.438 274.158 193.146 282.463 199.294ZM197.395 147.274C197.987 147.513 198.57 147.446 198.829 146.788L201.908 148.029L201.105 150.048L188.26 144.871L189.067 142.853L192.383 144.191C192.12 144.849 192.497 145.3 193.089 145.543C194.527 146.117 195.957 146.696 197.395 147.274ZM199.965 167.184C200.136 169.004 198.579 172.851 196.536 173.2C198.141 173.438 200.259 171.601 201.382 168.275C203.732 170.201 200.246 175.32 197.983 174.331C196.487 173.673 192.935 171.893 191.194 170.731C188.361 168.841 190.944 162.229 194.303 163.943C196.308 164.967 198.119 165.851 199.965 167.184Z" fill="white"/>
</g>
<defs>
<radialGradient id="paint0_radial_2887_131" cx="0" cy="0" r="1" gradientUnits="userSpaceOnUse" gradientTransform="translate(144 231.5) scale(72 11.5)">
<stop stop-color="#003C0D"/>
<stop offset="1" stop-color="#00A224"/>
</radialGradient>
</defs>
</svg>
